<svg width="72" height="71" viewBox="0 0 72 71" fill="none" xmlns="http://www.w3.org/2000/svg">
<path d="M24.0133 56.8639C24.0133 57.1534 23.6804 57.385 23.2606 57.385C22.7829 57.4284 22.45 57.1968 22.45 56.8639C22.45 56.5744 22.7829 56.3428 23.2027 56.3428C23.6369 56.2994 24.0133 56.531 24.0133 56.8639ZM19.5117 56.2125C19.4104 56.502 19.6999 56.8349 20.1341 56.9218C20.5104 57.0665 20.9447 56.9218 21.0315 56.6323C21.1184 56.3428 20.8433 56.0099 20.4091 55.8796C20.0328 55.7783 19.613 55.923 19.5117 56.2125ZM25.9094 55.9665C25.4897 56.0678 25.2002 56.3428 25.2436 56.6757C25.287 56.9652 25.6634 57.1534 26.0976 57.0521C26.5174 56.9507 26.8069 56.6757 26.7634 56.3862C26.72 56.1112 26.3292 55.9231 25.9094 55.9665ZM35.4337 0.5C15.3575 0.5 0 15.7417 0 35.8179C0 51.8702 10.1032 65.6065 24.5344 70.441C26.3871 70.7739 27.0385 69.6304 27.0385 68.6896C27.0385 67.7922 26.995 62.8419 26.995 59.8022C26.995 59.8022 16.8629 61.9734 14.7351 55.4888C14.7351 55.4888 13.085 51.2767 10.7112 50.1911C10.7112 50.1911 7.39649 47.9186 10.9428 47.962C10.9428 47.962 14.5469 48.2515 16.5299 51.6965C19.6999 57.2837 25.012 55.677 27.0819 54.7217C27.4148 52.4057 28.3556 50.7991 29.3978 49.8437C21.3065 48.9463 13.1429 47.7739 13.1429 33.8494C13.1429 29.8689 14.243 27.8714 16.5589 25.3239C16.1825 24.383 14.9522 20.5038 16.9352 15.4956C19.9604 14.5548 26.9227 19.4038 26.9227 19.4038C29.8176 18.5932 32.9296 18.1734 36.0127 18.1734C39.0958 18.1734 42.2078 18.5932 45.1027 19.4038C45.1027 19.4038 52.065 14.5403 55.0901 15.4956C57.0731 20.5183 55.8428 24.383 55.4665 25.3239C57.7824 27.8858 59.2009 29.8833 59.2009 33.8494C59.2009 47.8173 50.6754 48.9318 42.5841 49.8437C43.9158 50.9872 45.0448 53.1584 45.0448 56.5599C45.0448 61.4379 45.0014 67.4737 45.0014 68.6607C45.0014 69.6015 45.6672 70.745 47.5055 70.4121C61.98 65.6065 71.7938 51.8702 71.7938 35.8179C71.7938 15.7417 55.5099 0.5 35.4337 0.5ZM14.0693 50.4227C13.8811 50.5675 13.9245 50.9004 14.1706 51.1754C14.4022 51.407 14.7351 51.5083 14.9233 51.3201C15.1114 51.1754 15.068 50.8425 14.8219 50.5675C14.5903 50.3359 14.2574 50.2346 14.0693 50.4227ZM12.506 49.2503C12.4047 49.4384 12.5494 49.67 12.8389 49.8148C13.0705 49.9595 13.36 49.9161 13.4613 49.7135C13.5627 49.5253 13.4179 49.2937 13.1284 49.149C12.8389 49.0621 12.6073 49.1055 12.506 49.2503ZM17.1958 54.4032C16.9642 54.5914 17.051 55.0256 17.3839 55.3006C17.7168 55.6336 18.1366 55.677 18.3248 55.4454C18.5129 55.2572 18.4261 54.823 18.1366 54.548C17.8182 54.2151 17.3839 54.1716 17.1958 54.4032ZM15.5457 52.2755C15.3141 52.4202 15.3141 52.7966 15.5457 53.1295C15.7773 53.4624 16.1681 53.6071 16.3562 53.4624C16.5878 53.2742 16.5878 52.8979 16.3562 52.565C16.1536 52.232 15.7773 52.0873 15.5457 52.2755Z" fill="#2DE2E6"/>
</svg>
