<svg width="40" height="28" viewBox="0 0 40 28" fill="none" xmlns="http://www.w3.org/2000/svg">
<path d="M2.85714 5.6H37.1429C38.72 5.6 40 4.3456 40 2.8C40 1.2544 38.72 0 37.1429 0H2.85714C1.28 0 0 1.2544 0 2.8C0 4.3456 1.28 5.6 2.85714 5.6ZM37.1429 11.2H2.85714C1.28 11.2 0 12.4544 0 14C0 15.5456 1.28 16.8 2.85714 16.8H37.1429C38.72 16.8 40 15.5456 40 14C40 12.4544 38.72 11.2 37.1429 11.2ZM37.1429 22.4H2.85714C1.28 22.4 0 23.6544 0 25.2C0 26.7456 1.28 28 2.85714 28H37.1429C38.72 28 40 26.7456 40 25.2C40 23.6544 38.72 22.4 37.1429 22.4Z" fill="#2DE2E6"/>
</svg>
