<svg width="71" height="71" viewBox="0 0 71 71" fill="none" xmlns="http://www.w3.org/2000/svg">
<path d="M35.8093 17.5529C25.8751 17.5529 17.8622 25.5658 17.8622 35.5C17.8622 45.4342 25.8751 53.4471 35.8093 53.4471C45.7435 53.4471 53.7564 45.4342 53.7564 35.5C53.7564 25.5658 45.7435 17.5529 35.8093 17.5529ZM35.8093 47.168C29.3896 47.168 24.1414 41.9353 24.1414 35.5C24.1414 29.0647 29.374 23.832 35.8093 23.832C42.2447 23.832 47.4773 29.0647 47.4773 35.5C47.4773 41.9353 42.229 47.168 35.8093 47.168ZM58.6767 16.8188C58.6767 19.1461 56.8023 21.0049 54.4906 21.0049C52.1632 21.0049 50.3045 19.1305 50.3045 16.8188C50.3045 14.507 52.1788 12.6327 54.4906 12.6327C56.8023 12.6327 58.6767 14.507 58.6767 16.8188ZM70.5633 21.0673C70.2978 15.4598 69.017 10.4927 64.909 6.40037C60.8166 2.30799 55.8495 1.02717 50.242 0.746011C44.4627 0.417996 27.1404 0.417996 21.361 0.746011C15.7692 1.01155 10.8021 2.29237 6.69407 6.38475C2.58607 10.4771 1.32087 15.4442 1.03971 21.0517C0.711697 26.831 0.711697 44.1533 1.03971 49.9327C1.30525 55.5402 2.58607 60.5073 6.69407 64.5996C10.8021 68.692 15.7535 69.9728 21.361 70.254C27.1404 70.582 44.4627 70.582 50.242 70.254C55.8495 69.9884 60.8166 68.7076 64.909 64.5996C69.0013 60.5073 70.2822 55.5402 70.5633 49.9327C70.8913 44.1533 70.8913 26.8466 70.5633 21.0673ZM63.0971 56.1337C61.8787 59.1952 59.5201 61.5538 56.443 62.7877C51.8352 64.6152 40.9014 64.1935 35.8093 64.1935C30.7173 64.1935 19.7678 64.5996 15.1756 62.7877C12.1141 61.5694 9.75555 59.2108 8.52158 56.1337C6.69407 51.5259 7.1158 40.592 7.1158 35.5C7.1158 30.408 6.70969 19.4585 8.52158 14.8663C9.73993 11.8048 12.0985 9.44622 15.1756 8.21226C19.7834 6.38475 30.7173 6.80648 35.8093 6.80648C40.9014 6.80648 51.8508 6.40037 56.443 8.21226C59.5045 9.4306 61.8631 11.7892 63.0971 14.8663C64.9246 19.4741 64.5028 30.408 64.5028 35.5C64.5028 40.592 64.9246 51.5415 63.0971 56.1337Z" fill="#2DE2E6"/>
</svg>
