<svg width="71" height="71" viewBox="0 0 71 71" fill="none" xmlns="http://www.w3.org/2000/svg">
<path d="M65.7937 0.5H5.77808C3.02808 0.5 0.793701 2.76563 0.793701 5.54688V65.4531C0.793701 68.2344 3.02808 70.5 5.77808 70.5H65.7937C68.5437 70.5 70.7937 68.2344 70.7937 65.4531V5.54688C70.7937 2.76563 68.5437 0.5 65.7937 0.5ZM21.95 60.5H11.575V27.0938H21.9656V60.5H21.95ZM16.7625 22.5312C13.4343 22.5312 10.7468 19.8281 10.7468 16.5156C10.7468 13.2031 13.4343 10.5 16.7625 10.5C20.075 10.5 22.7781 13.2031 22.7781 16.5156C22.7781 19.8438 20.0906 22.5312 16.7625 22.5312ZM60.8406 60.5H50.4656V44.25C50.4656 40.375 50.3875 35.3906 45.075 35.3906C39.6687 35.3906 38.8406 39.6094 38.8406 43.9688V60.5H28.4656V27.0938H38.4187V31.6562H38.5593C39.95 29.0312 43.3406 26.2656 48.3875 26.2656C58.8875 26.2656 60.8406 33.1875 60.8406 42.1875V60.5Z" fill="#2DE2E6"/>
</svg>
