<svg width="619" height="551" viewBox="0 0 619 551" fill="none" xmlns="http://www.w3.org/2000/svg">
<path d="M96.4394 533.311C97.729 534.527 99.0314 535.737 100.34 536.936H517.715C519.027 535.737 520.326 534.527 521.612 533.311H96.4394Z" fill="url(#paint0_linear_32_67)"/>
<path d="M112.973 547.907C114.199 548.908 115.43 549.896 116.665 550.881H501.39C502.625 549.896 503.86 548.908 505.079 547.907H112.973Z" fill="url(#paint1_linear_32_67)"/>
<path d="M69.3616 504.103C70.7185 505.768 72.0915 507.414 73.4838 509.05H544.575C545.964 507.414 547.34 505.768 548.694 504.103H69.3616Z" fill="url(#paint2_linear_32_67)"/>
<path d="M82.0392 518.706C83.3673 520.143 84.7082 521.577 86.0651 522.988H531.993C533.35 521.577 534.685 520.143 536.013 518.706H82.0392Z" fill="url(#paint3_linear_32_67)"/>
<path d="M0 309.031C0 324.884 1.19658 340.455 3.50307 355.667H614.555C616.855 340.455 618.058 324.884 618.058 309.031C618.058 138.357 479.701 0 309.024 0C138.357 0 0 138.357 0 309.031Z" fill="url(#paint4_linear_32_67)"/>
<path d="M58.1627 489.501C59.5228 491.384 60.899 493.254 62.2945 495.105H555.757C557.156 493.254 558.532 491.384 559.886 489.501H58.1627Z" fill="url(#paint5_linear_32_67)"/>
<path d="M10.0021 387.284C10.9004 390.717 11.8659 394.117 12.8732 397.502H605.181C606.192 394.117 607.154 390.717 608.046 387.284H10.0021Z" fill="url(#paint6_linear_32_67)"/>
<path d="M6.57654 372.685C7.34323 376.336 8.18042 379.954 9.06901 383.557H608.989C609.878 379.954 610.715 376.336 611.479 372.685H6.57654Z" fill="url(#paint7_linear_32_67)"/>
<path d="M14.2056 401.887C15.2161 405.098 16.2875 408.277 17.3975 411.44H600.656C601.769 408.277 602.841 405.098 603.851 401.887H14.2056Z" fill="url(#paint8_linear_32_67)"/>
<path d="M3.88813 358.079C4.50726 361.948 5.19377 365.794 5.95083 369.612H612.101C612.864 365.794 613.551 361.948 614.164 358.079H3.88813Z" fill="url(#paint9_linear_32_67)"/>
<path d="M39.5147 460.296C40.8204 462.622 42.1549 464.928 43.5215 467.219H574.53C575.896 464.928 577.234 462.622 578.54 460.296H39.5147Z" fill="url(#paint10_linear_32_67)"/>
<path d="M31.8069 445.697C33.0709 448.244 34.3604 450.766 35.6853 453.274H582.371C583.695 450.766 584.988 448.244 586.246 445.697H31.8069Z" fill="url(#paint11_linear_32_67)"/>
<path d="M48.2503 474.902C49.5912 477.003 50.9577 479.091 52.35 481.157H565.705C567.097 479.091 568.461 477.003 569.805 474.902H48.2503Z" fill="url(#paint12_linear_32_67)"/>
<path d="M25.0603 431.091C26.2505 433.86 27.4887 436.606 28.7559 439.333H589.299C590.566 436.606 591.805 433.86 592.995 431.091H25.0603Z" fill="url(#paint13_linear_32_67)"/>
<path d="M19.2094 416.489C20.3161 419.479 21.4806 422.443 22.6771 425.388H595.375C596.578 422.443 597.736 419.479 598.843 416.489H19.2094Z" fill="url(#paint14_linear_32_67)"/>
<path d="M324.539 203.842C324.427 205.111 324.354 206.405 324.354 207.733C324.354 220.856 330.035 231.495 337.043 231.495C344.051 231.495 349.732 220.857 349.732 207.733C349.732 194.61 344.051 183.971 337.043 183.971C336.334 183.971 335.643 184.107 334.965 184.317C338.821 180.298 343.26 178 347.986 178C362.799 178 374.807 200.487 374.807 228.225C374.807 238.455 373.17 247.966 370.364 255.903L352.92 237.465L365.145 266.821C360.494 274.08 354.513 278.45 347.986 278.45C333.173 278.45 321.165 255.963 321.165 228.225C321.166 219.375 322.393 211.064 324.539 203.842Z" fill="#2DE2E6"/>
<path d="M246.374 203.842C246.262 205.111 246.189 206.405 246.189 207.733C246.189 220.856 251.87 231.495 258.878 231.495C265.886 231.495 271.567 220.857 271.567 207.733C271.567 194.61 265.886 183.971 258.878 183.971C258.169 183.971 257.478 184.107 256.8 184.317C260.656 180.298 265.094 178 269.821 178C284.634 178 296.642 200.487 296.642 228.225C296.642 238.455 295.005 247.966 292.199 255.903L274.755 237.465L286.98 266.821C282.329 274.08 276.348 278.45 269.821 278.45C255.008 278.45 243 255.963 243 228.225C243 219.375 244.227 211.064 246.374 203.842Z" fill="#2DE2E6"/>
<defs>
<linearGradient id="paint0_linear_32_67" x1="309.029" y1="0" x2="309.029" y2="550.881" gradientUnits="userSpaceOnUse">
<stop stop-color="#FF3864"/>
<stop offset="1" stop-color="#FF6C11"/>
</linearGradient>
<linearGradient id="paint1_linear_32_67" x1="309.029" y1="0" x2="309.029" y2="550.881" gradientUnits="userSpaceOnUse">
<stop stop-color="#FF3864"/>
<stop offset="1" stop-color="#FF6C11"/>
</linearGradient>
<linearGradient id="paint2_linear_32_67" x1="309.029" y1="0" x2="309.029" y2="550.881" gradientUnits="userSpaceOnUse">
<stop stop-color="#FF3864"/>
<stop offset="1" stop-color="#FF6C11"/>
</linearGradient>
<linearGradient id="paint3_linear_32_67" x1="309.029" y1="0" x2="309.029" y2="550.881" gradientUnits="userSpaceOnUse">
<stop stop-color="#FF3864"/>
<stop offset="1" stop-color="#FF6C11"/>
</linearGradient>
<linearGradient id="paint4_linear_32_67" x1="309.029" y1="0" x2="309.029" y2="550.881" gradientUnits="userSpaceOnUse">
<stop stop-color="#FF3864"/>
<stop offset="1" stop-color="#FF6C11"/>
</linearGradient>
<linearGradient id="paint5_linear_32_67" x1="309.029" y1="0" x2="309.029" y2="550.881" gradientUnits="userSpaceOnUse">
<stop stop-color="#FF3864"/>
<stop offset="1" stop-color="#FF6C11"/>
</linearGradient>
<linearGradient id="paint6_linear_32_67" x1="309.029" y1="0" x2="309.029" y2="550.881" gradientUnits="userSpaceOnUse">
<stop stop-color="#FF3864"/>
<stop offset="1" stop-color="#FF6C11"/>
</linearGradient>
<linearGradient id="paint7_linear_32_67" x1="309.029" y1="0" x2="309.029" y2="550.881" gradientUnits="userSpaceOnUse">
<stop stop-color="#FF3864"/>
<stop offset="1" stop-color="#FF6C11"/>
</linearGradient>
<linearGradient id="paint8_linear_32_67" x1="309.029" y1="0" x2="309.029" y2="550.881" gradientUnits="userSpaceOnUse">
<stop stop-color="#FF3864"/>
<stop offset="1" stop-color="#FF6C11"/>
</linearGradient>
<linearGradient id="paint9_linear_32_67" x1="309.029" y1="0" x2="309.029" y2="550.881" gradientUnits="userSpaceOnUse">
<stop stop-color="#FF3864"/>
<stop offset="1" stop-color="#FF6C11"/>
</linearGradient>
<linearGradient id="paint10_linear_32_67" x1="309.029" y1="0" x2="309.029" y2="550.881" gradientUnits="userSpaceOnUse">
<stop stop-color="#FF3864"/>
<stop offset="1" stop-color="#FF6C11"/>
</linearGradient>
<linearGradient id="paint11_linear_32_67" x1="309.029" y1="0" x2="309.029" y2="550.881" gradientUnits="userSpaceOnUse">
<stop stop-color="#FF3864"/>
<stop offset="1" stop-color="#FF6C11"/>
</linearGradient>
<linearGradient id="paint12_linear_32_67" x1="309.029" y1="0" x2="309.029" y2="550.881" gradientUnits="userSpaceOnUse">
<stop stop-color="#FF3864"/>
<stop offset="1" stop-color="#FF6C11"/>
</linearGradient>
<linearGradient id="paint13_linear_32_67" x1="309.029" y1="0" x2="309.029" y2="550.881" gradientUnits="userSpaceOnUse">
<stop stop-color="#FF3864"/>
<stop offset="1" stop-color="#FF6C11"/>
</linearGradient>
<linearGradient id="paint14_linear_32_67" x1="309.029" y1="0" x2="309.029" y2="550.881" gradientUnits="userSpaceOnUse">
<stop stop-color="#FF3864"/>
<stop offset="1" stop-color="#FF6C11"/>
</linearGradient>
</defs>
</svg>
