<svg width="105" height="70" viewBox="0 0 105 70" fill="none" xmlns="http://www.w3.org/2000/svg">
<path d="M81.3335 32.5744C73.5775 32.5744 67.2914 38.8145 67.2914 46.5106C67.2914 54.2088 73.5793 60.449 81.3335 60.449C89.0871 60.449 95.3767 54.2088 95.3767 46.5106C95.3767 38.8123 89.0895 32.5744 81.3335 32.5744ZM81.3323 36.9015C83.4815 36.9015 85.2267 38.6317 85.2267 40.7661V42.646H87.1201C89.2704 42.646 91.0144 44.3762 91.0144 46.5106C91.0144 48.645 89.2704 50.374 87.1201 50.374H85.2267V52.255C85.2267 54.3895 83.4826 56.1196 81.3323 56.1196C79.182 56.1196 77.4391 54.3895 77.4391 52.255V50.374H75.5446C73.3954 50.374 71.6513 48.6434 71.6513 46.5106C71.6513 44.3778 73.3942 42.646 75.5446 42.646H77.4391V40.7661C77.4391 38.6317 79.1832 36.9015 81.3323 36.9015Z" fill="#2DE2E6"/>
<path d="M23.6664 32.5744C15.9118 32.5744 9.62311 38.8145 9.62311 46.5106C9.62311 54.2088 15.9102 60.449 23.6664 60.449C31.4225 60.449 37.7096 54.2088 37.7096 46.5106C37.7096 38.8123 31.4209 32.5744 23.6664 32.5744ZM23.6652 37.29C25.2866 37.29 26.6008 38.5934 26.6008 40.2033C26.6008 41.8132 25.2872 43.1177 23.6652 43.1177C22.0431 43.1177 20.7284 41.8132 20.7284 40.2033C20.7284 38.595 22.0437 37.29 23.6652 37.29ZM17.31 43.5962C18.9337 43.5962 20.2456 44.8995 20.2456 46.5094C20.2456 48.1193 18.9337 49.4261 17.31 49.4261C15.6896 49.4261 14.3755 48.1193 14.3755 46.5094C14.3755 44.8995 15.6863 43.5962 17.31 43.5962ZM30.0193 43.5962C31.6402 43.5962 32.9561 44.8995 32.9561 46.5094C32.9561 48.1193 31.6402 49.4261 30.0193 49.4261C28.3984 49.4261 27.0836 48.1193 27.0836 46.5094C27.0836 44.8995 28.3984 43.5962 30.0193 43.5962ZM23.6652 49.9035C25.2866 49.9035 26.6009 51.204 26.6009 52.8156C26.6009 54.4271 25.2872 55.7311 23.6652 55.7311C22.0431 55.7311 20.7284 54.4271 20.7284 52.8156C20.7284 51.2078 22.0437 49.9035 23.6652 49.9035Z" fill="#2DE2E6"/>
<path d="M23.6668 23.021H43.6081V17.494H49.194C49.0688 16.8891 48.9878 16.192 48.9878 15.3525C48.9878 12.9857 49.6175 11.7011 50.1235 10.6661C50.5551 9.78489 50.867 9.14906 50.867 7.67707C50.867 6.20509 50.5551 5.56547 50.1235 4.68477C49.6175 3.65149 48.9878 2.36519 48.9878 0H52.8965C52.8965 1.472 53.2083 2.10836 53.64 2.98906C54.1454 4.02397 54.7757 5.31027 54.7757 7.67707C54.7757 10.0439 54.1449 11.3286 53.64 12.3618C53.2083 13.2431 52.8965 13.8789 52.8965 15.3525C52.8965 16.3299 53.0355 16.9364 53.2543 17.494H61.3917V23.021H81.3331C94.3832 23.021 105 33.5579 105 46.5104C105 59.4632 94.3832 70 81.3331 70C70.301 70 60.9108 62.5835 58.3496 52.1183H46.6502C44.0889 62.5835 34.6981 70 23.6668 70C10.6167 70 0 59.4632 0 46.5104C0 33.5579 10.6173 23.021 23.6668 23.021ZM23.6668 65.7259C33.1981 65.7259 41.2311 58.9592 42.7678 49.6358L43.0627 47.8456H61.9359L62.2323 49.6358C63.7687 58.9598 71.8023 65.7259 81.3331 65.7259C92.0091 65.7259 100.694 57.1066 100.694 46.5099C100.694 35.9133 92.0091 27.2941 81.3331 27.2941H23.6668C12.991 27.2941 4.30589 35.9149 4.30589 46.5099C4.30589 57.1049 12.991 65.7259 23.6668 65.7259Z" fill="#2DE2E6"/>
</svg>
