<svg width="36" height="36" viewBox="0 0 36 36" fill="none" xmlns="http://www.w3.org/2000/svg">
<path d="M1.25773 0.972582C2.55459 -0.324205 4.65911 -0.324183 5.95597 0.972582L17.7275 12.7441L29.1659 1.30657C30.4628 0.00980719 32.5673 0.00972649 33.8642 1.30657C35.161 2.60341 35.1609 4.70792 33.8642 6.00481L22.4257 17.4423L34.1493 29.1659C35.446 30.4628 35.4461 32.5674 34.1493 33.8642C32.8525 35.1611 30.747 35.1611 29.4501 33.8642L17.7275 22.1406L5.67082 34.1982C4.37393 35.4949 2.2694 35.495 0.972575 34.1982C-0.324249 32.9013 -0.324134 30.7968 0.972575 29.4999L13.0292 17.4423L1.25773 5.67082C-0.0390545 4.37394 -0.0391181 2.26943 1.25773 0.972582Z" fill="#2DE2E6"/>
</svg>
