<svg width="207" height="119" viewBox="0 0 207 119" fill="none" xmlns="http://www.w3.org/2000/svg">
<path d="M184.753 15.6372L155.229 8.25623H133.085V15.6372H74.0369V8.25623H51.8928L22.3689 15.6372L7.60681 30.3992V89.4482L29.7499 111.592H51.8928L66.6549 96.8302V89.4482H140.467V96.8302L155.229 111.592H177.372L199.516 89.4482V30.3992L184.753 15.6372Z" fill="#261447"/>
<path d="M22.3688 15.6372H14.9878V23.0182H22.3688V15.6372Z" fill="#FF3864"/>
<path d="M14.9879 23.0182H7.60681V30.3992H14.9879V23.0182Z" fill="#FF3864"/>
<path d="M7.60571 30.3993H0.224731V37.7803H7.60571V30.3993Z" fill="#FF3864"/>
<path d="M7.60571 37.7812H0.224731V45.1622H7.60571V37.7812Z" fill="#FF3864"/>
<path d="M7.60571 45.1622H0.224731V52.5432H7.60571V45.1622Z" fill="#FF3864"/>
<path d="M7.60571 52.5432H0.224731V59.9242H7.60571V52.5432Z" fill="#FF3864"/>
<path d="M7.60571 59.9242H0.224731V67.3052H7.60571V59.9242Z" fill="#FF3864"/>
<path d="M7.60571 67.3052H0.224731V74.6862H7.60571V67.3052Z" fill="#FF3864"/>
<path d="M7.60571 74.6863H0.224731V82.0673H7.60571V74.6863Z" fill="#FF3864"/>
<path d="M7.60571 82.0673H0.224731V89.4483H7.60571V82.0673Z" fill="#FF3864"/>
<path d="M14.9879 89.4482H7.60681V96.8292H14.9879V89.4482Z" fill="#FF3864"/>
<path d="M22.3688 96.8302H14.9878V104.211H22.3688V96.8302Z" fill="#FF3864"/>
<path d="M192.134 96.8302H184.753V104.211H192.134V96.8302Z" fill="#FF3864"/>
<path d="M184.753 104.211H177.372V111.592H184.753V104.211Z" fill="#FF3864"/>
<path d="M177.372 111.592H169.991V118.973H177.372V111.592Z" fill="#FF3864"/>
<path d="M169.991 111.592H162.61V118.973H169.991V111.592Z" fill="#FF3864"/>
<path d="M162.61 111.592H155.229V118.973H162.61V111.592Z" fill="#FF3864"/>
<path d="M155.229 104.211H147.848V111.592H155.229V104.211Z" fill="#FF3864"/>
<path d="M147.848 96.8302H140.467V104.211H147.848V96.8302Z" fill="#FF3864"/>
<path d="M140.466 89.4482H133.085V96.8292H140.466V89.4482Z" fill="#FF3864"/>
<path d="M133.085 89.4482H125.704V96.8292H133.085V89.4482Z" fill="#FF3864"/>
<path d="M125.704 89.4482H118.323V96.8292H125.704V89.4482Z" fill="#FF3864"/>
<path d="M118.323 89.4482H110.942V96.8292H118.323V89.4482Z" fill="#FF3864"/>
<path d="M110.942 89.4482H103.561V96.8292H110.942V89.4482Z" fill="#FF3864"/>
<path d="M103.561 89.4482H96.1797V96.8292H103.561V89.4482Z" fill="#FF3864"/>
<path d="M96.1798 89.4482H88.7988V96.8292H96.1798V89.4482Z" fill="#FF3864"/>
<path d="M199.515 89.4482H192.134V96.8292H199.515V89.4482Z" fill="#FF3864"/>
<path d="M206.897 82.0673H199.516V89.4483H206.897V82.0673Z" fill="#FF3864"/>
<path d="M206.897 74.6863H199.516V82.0673H206.897V74.6863Z" fill="#FF3864"/>
<path d="M206.897 67.3052H199.516V74.6862H206.897V67.3052Z" fill="#FF3864"/>
<path d="M206.897 59.9242H199.516V67.3052H206.897V59.9242Z" fill="#FF3864"/>
<path d="M206.897 52.5432H199.516V59.9242H206.897V52.5432Z" fill="#FF3864"/>
<path d="M206.897 45.1622H199.516V52.5432H206.897V45.1622Z" fill="#FF3864"/>
<path d="M206.897 37.7812H199.516V45.1622H206.897V37.7812Z" fill="#FF3864"/>
<path d="M206.897 30.4003H199.516V37.7813H206.897V30.4003Z" fill="#FF3864"/>
<path d="M199.515 23.0182H192.134V30.3992H199.515V23.0182Z" fill="#FF3864"/>
<path d="M192.134 15.6372H184.753V23.0182H192.134V15.6372Z" fill="#FF3864"/>
<path d="M29.7498 104.211H22.3688V111.592H29.7498V104.211Z" fill="#FF3864"/>
<path d="M37.1309 111.592H29.7499V118.973H37.1309V111.592Z" fill="#FF3864"/>
<path d="M44.5118 111.592H37.1309V118.973H44.5118V111.592Z" fill="#FF3864"/>
<path d="M51.8928 111.592H44.5118V118.973H51.8928V111.592Z" fill="#FF3864"/>
<path d="M59.2738 104.211H51.8928V111.592H59.2738V104.211Z" fill="#FF3864"/>
<path d="M66.6548 96.8302H59.2738V104.211H66.6548V96.8302Z" fill="#FF3864"/>
<path d="M74.0359 89.4482H66.6548V96.8292H74.0359V89.4482Z" fill="#FF3864"/>
<path d="M81.4178 89.4482H74.0369V96.8292H81.4178V89.4482Z" fill="#FF3864"/>
<path d="M129.395 30.4003H122.014V37.7813H129.395V30.4003Z" fill="#FF3864"/>
<path d="M114.633 30.4003H107.252V37.7813H114.633V30.4003Z" fill="#FF3864"/>
<path d="M99.8698 30.4003H92.4888V37.7813H99.8698V30.4003Z" fill="#FF3864"/>
<path d="M85.1079 30.3993H77.7268V37.7803H85.1079V30.3993Z" fill="#FF3864"/>
<path d="M88.7988 89.4482H81.4178V96.8292H88.7988V89.4482Z" fill="#FF3864"/>
<path d="M14.9879 82.0673H7.60681V89.4483H14.9879V82.0673Z" fill="#0D0221"/>
<path d="M22.3688 89.4482H14.9878V96.8292H22.3688V89.4482Z" fill="#0D0221"/>
<path d="M192.134 89.4482H184.753V96.8292H192.134V89.4482Z" fill="#0D0221"/>
<path d="M184.753 96.8302H177.372V104.211H184.753V96.8302Z" fill="#0D0221"/>
<path d="M177.372 104.211H169.991V111.592H177.372V104.211Z" fill="#0D0221"/>
<path d="M169.991 104.211H162.61V111.592H169.991V104.211Z" fill="#0D0221"/>
<path d="M162.61 104.211H155.229V111.592H162.61V104.211Z" fill="#0D0221"/>
<path d="M155.229 96.8302H147.848V104.211H155.229V96.8302Z" fill="#0D0221"/>
<path d="M147.848 89.4482H140.467V96.8292H147.848V89.4482Z" fill="#0D0221"/>
<path d="M140.466 82.0673H133.085V89.4483H140.466V82.0673Z" fill="#0D0221"/>
<path d="M133.085 82.0673H125.704V89.4483H133.085V82.0673Z" fill="#0D0221"/>
<path d="M125.704 82.0673H118.323V89.4483H125.704V82.0673Z" fill="#0D0221"/>
<path d="M118.323 82.0673H110.942V89.4483H118.323V82.0673Z" fill="#0D0221"/>
<path d="M110.942 82.0673H103.561V89.4483H110.942V82.0673Z" fill="#0D0221"/>
<path d="M103.561 82.0673H96.1797V89.4483H103.561V82.0673Z" fill="#0D0221"/>
<path d="M96.1798 82.0673H88.7988V89.4483H96.1798V82.0673Z" fill="#0D0221"/>
<path d="M199.515 82.0673H192.134V89.4483H199.515V82.0673Z" fill="#0D0221"/>
<path d="M29.7498 96.8302H22.3688V104.211H29.7498V96.8302Z" fill="#0D0221"/>
<path d="M37.1309 104.211H29.7499V111.592H37.1309V104.211Z" fill="#0D0221"/>
<path d="M44.5118 104.211H37.1309V111.592H44.5118V104.211Z" fill="#0D0221"/>
<path d="M51.8928 104.211H44.5118V111.592H51.8928V104.211Z" fill="#0D0221"/>
<path d="M59.2738 96.8302H51.8928V104.211H59.2738V96.8302Z" fill="#0D0221"/>
<path d="M66.6548 89.4482H59.2738V96.8292H66.6548V89.4482Z" fill="#0D0221"/>
<path d="M74.0359 82.0673H66.6548V89.4483H74.0359V82.0673Z" fill="#0D0221"/>
<path d="M81.4178 82.0673H74.0369V89.4483H81.4178V82.0673Z" fill="#0D0221"/>
<path d="M88.7988 82.0673H81.4178V89.4483H88.7988V82.0673Z" fill="#0D0221"/>
<path d="M44.5118 45.1622H37.1309V52.5432H44.5118V45.1622Z" fill="#FF3864"/>
<path d="M51.8928 52.5432H44.5118V59.9242H51.8928V52.5432Z" fill="#FF3864"/>
<path d="M44.5118 59.9242H37.1309V67.3052H44.5118V59.9242Z" fill="#FF3864"/>
<path d="M37.1309 52.5432H29.7499V59.9242H37.1309V52.5432Z" fill="#FF3864"/>
<path d="M162.61 45.1622H155.229V52.5432H162.61V45.1622Z" fill="#FF3864"/>
<path d="M169.991 52.5432H162.61V59.9242H169.991V52.5432Z" fill="#FF3864"/>
<path d="M162.61 59.9242H155.229V67.3052H162.61V59.9242Z" fill="#FF3864"/>
<path d="M155.229 52.5432H147.848V59.9242H155.229V52.5432Z" fill="#FF3864"/>
<path d="M29.7498 8.25623H22.3688V15.6372H29.7498V8.25623Z" fill="#FF3864"/>
<path d="M37.1309 8.25623H29.7499V15.6372H37.1309V8.25623Z" fill="#FF3864"/>
<path d="M44.5118 8.25623H37.1309V15.6372H44.5118V8.25623Z" fill="#FF3864"/>
<path d="M51.8928 8.25623H44.5118V15.6372H51.8928V8.25623Z" fill="#FF3864"/>
<path d="M59.2738 0.875244H51.8928V8.25624H59.2738V0.875244Z" fill="#FF3864"/>
<path d="M66.6548 0.875244H59.2738V8.25624H66.6548V0.875244Z" fill="#FF3864"/>
<path d="M74.0359 0.875244H66.6548V8.25624H74.0359V0.875244Z" fill="#FF3864"/>
<path d="M81.4178 8.25623H74.0369V15.6372H81.4178V8.25623Z" fill="#FF3864"/>
<path d="M88.7988 8.25623H81.4178V15.6372H88.7988V8.25623Z" fill="#FF3864"/>
<path d="M96.1798 8.25623H88.7988V15.6372H96.1798V8.25623Z" fill="#FF3864"/>
<path d="M103.561 8.25623H96.1797V15.6372H103.561V8.25623Z" fill="#FF3864"/>
<path d="M110.942 8.25623H103.561V15.6372H110.942V8.25623Z" fill="#FF3864"/>
<path d="M118.323 8.25623H110.942V15.6372H118.323V8.25623Z" fill="#FF3864"/>
<path d="M125.704 8.25623H118.323V15.6372H125.704V8.25623Z" fill="#FF3864"/>
<path d="M133.085 8.25623H125.704V15.6372H133.085V8.25623Z" fill="#FF3864"/>
<path d="M140.466 0.875244H133.085V8.25624H140.466V0.875244Z" fill="#FF3864"/>
<path d="M147.848 0.875244H140.467V8.25624H147.848V0.875244Z" fill="#FF3864"/>
<path d="M155.229 0.875244H147.848V8.25624H155.229V0.875244Z" fill="#FF3864"/>
<path d="M162.61 8.25623H155.229V15.6372H162.61V8.25623Z" fill="#FF3864"/>
<path d="M169.991 8.25623H162.61V15.6372H169.991V8.25623Z" fill="#FF3864"/>
<path d="M177.372 8.25623H169.991V15.6372H177.372V8.25623Z" fill="#FF3864"/>
<path d="M184.753 8.25623H177.372V15.6372H184.753V8.25623Z" fill="#FF3864"/>
<g opacity="0.4">
<path d="M22.3688 23.0182H14.9878V30.3992H22.3688V23.0182Z" fill="#0D0221"/>
<path d="M14.9879 30.3992H7.60681V37.7802H14.9879V30.3992Z" fill="#0D0221"/>
<path d="M199.515 30.3992H192.134V37.7802H199.515V30.3992Z" fill="#0D0221"/>
<path d="M192.134 23.0182H184.753V30.3992H192.134V23.0182Z" fill="#0D0221"/>
<path d="M29.7498 15.6372H22.3688V23.0182H29.7498V15.6372Z" fill="#0D0221"/>
<path d="M37.1309 15.6372H29.7499V23.0182H37.1309V15.6372Z" fill="#0D0221"/>
<path d="M44.5118 15.6372H37.1309V23.0182H44.5118V15.6372Z" fill="#0D0221"/>
<path d="M51.8928 15.6372H44.5118V23.0182H51.8928V15.6372Z" fill="#0D0221"/>
<path d="M59.2738 8.25623H51.8928V15.6372H59.2738V8.25623Z" fill="#0D0221"/>
<path d="M66.6548 8.25623H59.2738V15.6372H66.6548V8.25623Z" fill="#0D0221"/>
<path d="M74.0359 8.25623H66.6548V15.6372H74.0359V8.25623Z" fill="#0D0221"/>
<path d="M81.4178 15.6372H74.0369V23.0182H81.4178V15.6372Z" fill="#0D0221"/>
<path d="M88.7988 15.6372H81.4178V23.0182H88.7988V15.6372Z" fill="#0D0221"/>
<path d="M96.1798 15.6372H88.7988V23.0182H96.1798V15.6372Z" fill="#0D0221"/>
<path d="M103.561 15.6372H96.1797V23.0182H103.561V15.6372Z" fill="#0D0221"/>
<path d="M110.942 15.6372H103.561V23.0182H110.942V15.6372Z" fill="#0D0221"/>
<path d="M118.323 15.6372H110.942V23.0182H118.323V15.6372Z" fill="#0D0221"/>
<path d="M125.704 15.6372H118.323V23.0182H125.704V15.6372Z" fill="#0D0221"/>
<path d="M133.085 15.6372H125.704V23.0182H133.085V15.6372Z" fill="#0D0221"/>
<path d="M140.466 8.25623H133.085V15.6372H140.466V8.25623Z" fill="#0D0221"/>
<path d="M147.848 8.25623H140.467V15.6372H147.848V8.25623Z" fill="#0D0221"/>
<path d="M155.229 8.25623H147.848V15.6372H155.229V8.25623Z" fill="#0D0221"/>
<path d="M162.61 15.6372H155.229V23.0182H162.61V15.6372Z" fill="#0D0221"/>
<path d="M169.991 15.6372H162.61V23.0182H169.991V15.6372Z" fill="#0D0221"/>
<path d="M177.372 15.6372H169.991V23.0182H177.372V15.6372Z" fill="#0D0221"/>
<path d="M184.753 15.6372H177.372V23.0182H184.753V15.6372Z" fill="#0D0221"/>
</g>
</svg>
