<svg width="420" height="559" viewBox="0 0 420 559" fill="none" xmlns="http://www.w3.org/2000/svg">
<path d="M9.82715 122.558V443.648C9.82715 477.966 30.202 509.044 61.722 522.742L105.27 541.644C118.674 547.486 133.353 549.794 147.886 548.419L332.047 530.744C360.179 528.044 384.089 512.039 397.737 489.258H397.786C405.593 476.247 410.06 461.027 410.06 444.875V158.005C410.06 120.839 386.249 87.8466 350.998 76.1615L164.677 14.2512C159.424 12.4839 154.072 11.2562 148.672 10.5691C128.739 7.96707 108.315 12.4348 91.0818 23.4322L49.6444 49.8953C24.8505 65.7042 9.82715 93.149 9.82715 122.558Z" fill="#0D0221"/>
<path d="M9.82712 122.558V443.648C9.82712 477.966 30.202 509.044 61.722 522.742L105.27 541.644C118.674 547.486 133.353 549.794 147.886 548.419L332.046 530.744C360.179 528.044 384.089 512.039 397.737 489.258C237.732 532.168 139.54 493.137 131.046 335.243V84.0664C130.064 40.7633 145.53 17.7371 145.53 17.7371L148.671 10.5691C128.738 7.96707 108.314 12.4348 91.0815 23.4322L49.6442 49.8953C24.8505 65.7042 9.82712 93.149 9.82712 122.558Z" fill="#261447"/>
<path d="M139.683 558.617C142.725 558.617 145.769 558.473 148.805 558.181L332.984 540.52C356.816 538.235 378.807 527.219 394.908 509.5C411.008 491.783 419.875 468.84 419.875 444.899V157.988C419.875 116.532 393.441 79.8968 354.098 66.827L167.783 4.93477C140.186 -4.23223 110.303 -0.513199 85.7961 15.1383L44.3554 41.6047C16.5811 59.3423 0.00012207 89.6068 0.00012207 122.562V443.633C0.00012207 481.908 22.6841 516.492 57.7904 531.74L101.367 550.668C113.452 555.917 126.542 558.617 139.683 558.617ZM137.425 19.6455C145.527 19.6455 153.677 20.9422 161.593 23.5721L347.908 85.4644C379.207 95.8616 400.237 125.007 400.237 157.988V444.899C400.237 484.488 370.518 517.193 331.11 520.972L146.931 538.632C134.081 539.863 121.031 537.797 109.191 532.655L65.6145 513.727C37.6851 501.596 19.6385 474.083 19.6385 443.633V122.562C19.6385 96.3443 32.8304 72.2671 54.9256 58.1561L96.3663 31.6897C108.835 23.727 123.053 19.6455 137.425 19.6455Z" fill="#2DE2E6"/>
<path d="M171.481 553.509C175.068 553.509 178.211 550.884 178.756 547.229C179.355 543.207 176.58 539.459 172.557 538.86L169.638 538.43C155.614 536.377 143.503 534.604 135.164 525.587C125.385 515.011 120.638 494.226 120.652 462.04V87.7285C120.17 56.4436 125.222 37.4232 136.096 29.4664C147.032 21.4636 166.412 22.5158 197.085 32.7758C200.943 34.0644 205.115 31.9847 206.406 28.1277C207.695 24.2703 205.615 20.0976 201.758 18.8073C165.667 6.7364 142.734 6.35659 127.398 17.5799C112.18 28.716 105.356 51.0424 105.923 87.8421L105.92 462.037C105.905 498.603 111.761 521.975 124.348 535.587C136.22 548.424 152.123 550.753 167.503 553.004L170.384 553.428C170.752 553.482 171.118 553.509 171.479 553.509H171.481Z" fill="#2DE2E6"/>
<path d="M89.7428 539.791C90.9976 539.791 92.25 539.317 93.2029 538.365C95.0521 536.516 95.14 533.58 93.4233 531.654C82.5647 517.881 77.2855 495.111 77.2855 462.059V87.7482C76.8673 61.2923 81.5349 41.5058 91.1587 28.8602C92.8009 26.7026 92.3827 23.6224 90.2251 21.9799C88.068 20.3389 84.9878 20.7554 83.3449 22.9137C72.356 37.3536 67.0133 59.1933 67.4666 87.8261V462.059C67.4666 497.547 73.4852 522.363 85.8649 537.925C85.9807 538.07 86.1046 538.209 86.2354 538.34C87.2007 539.305 88.4723 539.791 89.7428 539.791Z" fill="#2DE2E6"/>
<path d="M69.7058 527.645C71.5574 527.645 73.3299 526.592 74.1618 524.802C75.3036 522.342 74.2356 519.423 71.7766 518.281C55.1654 510.567 47.0909 495.404 47.0909 471.927V97.6168C47.0739 95.7063 47.0449 93.8658 47.0159 92.053C46.704 72.5953 46.479 58.5372 61.75 47.9681C63.9798 46.4248 64.5359 43.3665 62.9931 41.137C61.4486 38.9077 58.3898 38.3522 56.1619 39.8939C36.5774 53.4488 36.8786 72.2765 37.1981 92.21C37.2267 93.9995 37.2558 95.8161 37.272 97.6597V471.927C37.272 499.236 47.49 517.828 67.6413 527.187C68.3102 527.498 69.0136 527.645 69.7058 527.645Z" fill="#2DE2E6"/>
<path d="M153.274 283.06V82.7521C153.274 75.462 160.26 70.2046 167.265 72.2233L369.023 130.362C373.715 131.714 376.946 136.008 376.946 140.891V298.651C376.946 305.035 371.51 310.068 365.145 309.576L163.387 293.984C157.68 293.543 153.274 288.784 153.274 283.06Z" fill="#261447"/>
<path d="M365.978 315.745C370.263 315.745 374.438 314.124 377.601 311.196C381.085 307.971 383.083 303.399 383.083 298.652V140.891C383.083 133.317 378 126.563 370.722 124.466L168.965 66.3265C163.755 64.8244 158.284 65.8337 153.953 69.0931C149.621 72.3532 147.137 77.3315 147.137 82.7528V283.061C147.137 291.934 154.067 299.42 162.914 300.104L364.672 315.695C365.108 315.728 365.544 315.745 365.978 315.745ZM164.218 77.9282C164.666 77.9282 165.12 77.9916 165.566 78.1202L367.324 136.26C369.376 136.851 370.809 138.756 370.809 140.891V298.651C370.809 300.01 370.26 301.266 369.263 302.188C368.267 303.111 366.97 303.557 365.618 303.457L163.86 287.866C161.365 287.673 159.411 285.562 159.411 283.06V82.7526C159.411 81.2238 160.112 79.8196 161.333 78.9004C162.183 78.2603 163.19 77.9282 164.218 77.9282Z" fill="#2DE2E6"/>
<path d="M357.969 309.026V176.319C357.969 158.153 345.99 142.197 328.561 137.189L153.287 86.6685L153.492 285.23C154.783 289.992 157.603 292.634 161.574 293.681L357.969 309.026Z" fill="#2DE2E6"/>
<path opacity="0.51" d="M225.154 123.277C359.03 155.542 344.212 164.109 341.338 273.634C341.287 275.583 338.665 276.102 337.826 274.343C306.336 208.272 267.43 161.889 223.563 126.511C222.017 125.264 223.222 122.811 225.154 123.277Z" fill="#261447"/>
<path d="M346.954 337.694L346.907 369.896L373.784 371.108V404.948H346.907V436.657L308.65 438.301V404.948H281.993L281.79 365.98L308.447 367.182L308.65 336.051L346.954 337.694Z" fill="#3D3D99"/>
<path d="M308.65 443.091C308.718 443.091 308.786 443.089 308.855 443.087L347.113 441.443C349.676 441.333 351.698 439.223 351.698 436.657V409.738H373.784C376.429 409.738 378.574 407.593 378.574 404.947V371.107C378.574 368.545 376.559 366.437 374 366.321L351.704 365.316L351.744 337.7C351.748 335.17 349.783 333.073 347.257 332.912L308.958 330.477C307.65 330.398 306.351 330.856 305.388 331.755C304.424 332.654 303.873 333.91 303.864 335.227L303.689 362.172L282.006 361.193C280.689 361.145 279.417 361.616 278.471 362.525C277.525 363.434 276.993 364.692 277 366.004L277.203 404.972C277.217 407.608 279.357 409.738 281.993 409.738H303.86V438.3C303.86 439.606 304.393 440.856 305.336 441.76C306.229 442.616 307.418 443.091 308.65 443.091ZM342.117 432.068L313.44 433.3V404.948C313.44 402.302 311.295 400.157 308.65 400.157H286.758L286.607 370.993L308.231 371.968C309.538 372.024 310.802 371.553 311.746 370.656C312.69 369.759 313.228 368.516 313.237 367.214L313.412 340.362L342.157 342.19L342.117 369.889C342.113 372.454 344.13 374.567 346.692 374.682L368.993 375.688V400.157H346.907C344.262 400.157 342.117 402.302 342.117 404.948L342.117 432.068Z" fill="#2DE2E6"/>
<path d="M315.708 368.171V336.051L353.965 338.12V369.896L380.841 371.108V404.948H353.965V436.657L315.708 438.301V404.948H289.051V366.969L315.708 368.171Z" fill="#3D3D99"/>
<path d="M315.708 443.091C315.776 443.091 315.844 443.089 315.913 443.087L354.17 441.443C356.734 441.333 358.755 439.223 358.755 436.657V409.738H380.841C383.487 409.738 385.632 407.593 385.632 404.947V371.107C385.632 368.545 383.616 366.437 381.057 366.321L358.755 365.316V338.119C358.755 335.574 356.765 333.473 354.224 333.335L315.966 331.266C314.651 331.199 313.368 331.668 312.413 332.572C311.458 333.477 310.917 334.735 310.917 336.05V363.159L289.267 362.182C287.954 362.125 286.685 362.602 285.741 363.505C284.795 364.409 284.26 365.66 284.26 366.968V404.947C284.26 407.593 286.405 409.738 289.051 409.738H310.917V438.3C310.917 439.606 311.451 440.856 312.394 441.76C313.287 442.616 314.476 443.091 315.708 443.091ZM349.174 432.068L320.498 433.3V404.948C320.498 402.302 318.353 400.157 315.707 400.157H293.841V371.981L315.492 372.957C316.807 373.007 318.073 372.537 319.017 371.634C319.963 370.73 320.498 369.479 320.498 368.171V341.107L349.174 342.658V369.896C349.174 372.458 351.189 374.566 353.748 374.682L376.05 375.687V400.157H353.964C351.319 400.157 349.174 402.302 349.174 404.948L349.174 432.068Z" fill="#2DE2E6"/>
<path d="M188.757 333.859H202.634C216.886 333.859 228.44 347.43 228.44 364.169C228.44 380.909 216.886 394.479 202.634 394.479H188.757C174.505 394.479 162.951 380.909 162.951 364.169C162.951 347.43 174.505 333.859 188.757 333.859Z" fill="#FF3864"/>
<path d="M188.757 399.269H202.634C219.505 399.269 233.23 383.524 233.23 364.169C233.23 344.814 219.505 329.069 202.634 329.069H188.757C171.886 329.069 158.16 344.815 158.16 364.169C158.16 383.524 171.886 399.269 188.757 399.269ZM202.634 338.65C214.222 338.65 223.649 350.098 223.649 364.169C223.649 378.24 214.222 389.688 202.634 389.688H188.757C177.169 389.688 167.742 378.24 167.742 364.169C167.742 350.098 177.169 338.65 188.757 338.65H202.634Z" fill="#2DE2E6"/>
<path d="M202.634 398.162C218.894 398.162 232.122 382.913 232.122 364.17C232.122 345.426 218.893 330.177 202.634 330.177C186.374 330.177 173.146 345.426 173.146 364.17C173.146 382.913 186.374 398.162 202.634 398.162ZM202.634 337.542C214.833 337.542 224.757 349.487 224.757 364.17C224.757 378.852 214.833 390.797 202.634 390.797C190.435 390.797 180.51 378.852 180.51 364.17C180.51 349.487 190.435 337.542 202.634 337.542Z" fill="#2DE2E6"/>
<path d="M221.502 414.686H235.378C249.631 414.686 261.185 428.256 261.185 444.995C261.185 461.735 249.631 475.305 235.378 475.305H221.502C207.249 475.305 195.696 461.735 195.696 444.995C195.696 428.256 207.249 414.686 221.502 414.686Z" fill="#FF6C11"/>
<path d="M221.502 480.096H235.378C252.25 480.096 265.975 464.35 265.975 444.995C265.975 425.641 252.249 409.896 235.378 409.896H221.502C204.63 409.896 190.905 425.641 190.905 444.995C190.905 464.35 204.63 480.096 221.502 480.096ZM235.378 419.477C246.966 419.477 256.394 430.924 256.394 444.995C256.394 459.067 246.966 470.515 235.378 470.515H221.502C209.914 470.515 200.486 459.067 200.486 444.995C200.486 430.924 209.914 419.477 221.502 419.477H235.378Z" fill="#2DE2E6"/>
<path d="M235.378 478.988C251.638 478.988 264.867 463.739 264.867 444.996C264.867 426.252 251.638 411.003 235.378 411.003C219.119 411.003 205.89 426.252 205.89 444.996C205.89 463.739 219.119 478.988 235.378 478.988ZM235.378 418.368C247.578 418.368 257.502 430.314 257.502 444.996C257.502 459.678 247.578 471.623 235.378 471.623C223.179 471.623 213.255 459.678 213.255 444.996C213.255 430.314 223.179 418.368 235.378 418.368Z" fill="#2DE2E6"/>
</svg>
