<svg width="284" height="85" viewBox="0 0 284 85" fill="none" xmlns="http://www.w3.org/2000/svg">
<path d="M42.093 42.093L74.625 15.383C66.905 5.99101 55.199 0 42.093 0C18.846 0 0 18.846 0 42.093C0 65.34 18.846 84.186 42.093 84.186C55.199 84.186 66.905 78.195 74.625 68.803L42.093 42.093ZM39.1511 24.059C36.6091 24.059 34.5481 21.998 34.5481 19.456C34.5481 16.914 36.6091 14.853 39.1511 14.853C41.6931 14.853 43.7541 16.914 43.7541 19.456C43.7531 21.998 41.6931 24.059 39.1511 24.059Z" fill="#FF3864"/>
<path d="M77.666 38.333H71.333V44.666H77.666V38.333Z" fill="white"/>
<path d="M71.333 44.667H65V51H71.333V44.667Z" fill="white"/>
<path d="M84 44.667H77.667V51H84V44.667Z" fill="white"/>
<path d="M71.333 32H65V38.333H71.333V32Z" fill="white"/>
<path d="M84 32H77.667V38.333H84V32Z" fill="white"/>
<path d="M177.666 38.333H171.333V44.666H177.666V38.333Z" fill="white"/>
<path d="M171.333 44.667H165V51H171.333V44.667Z" fill="white"/>
<path d="M184 44.667H177.667V51H184V44.667Z" fill="white"/>
<path d="M171.333 32H165V38.333H171.333V32Z" fill="white"/>
<path d="M184 32H177.667V38.333H184V32Z" fill="white"/>
<path d="M277.666 38.333H271.333V44.666H277.666V38.333Z" fill="white"/>
<path d="M271.333 44.667H265V51H271.333V44.667Z" fill="white"/>
<path d="M284 44.667H277.667V51H284V44.667Z" fill="white"/>
<path d="M271.333 32H265V38.333H271.333V32Z" fill="white"/>
<path d="M284 32H277.667V38.333H284V32Z" fill="white"/>
</svg>
