<svg width="284" height="85" viewBox="0 0 284 85" fill="none" xmlns="http://www.w3.org/2000/svg">
<path d="M241.907 42.093L209.375 15.383C217.095 5.99101 228.801 0 241.907 0C265.154 0 284 18.846 284 42.093C284 65.34 265.154 84.186 241.907 84.186C228.801 84.186 217.095 78.195 209.375 68.803L241.907 42.093ZM244.849 24.059C247.391 24.059 249.452 21.998 249.452 19.456C249.452 16.914 247.391 14.853 244.849 14.853C242.307 14.853 240.246 16.914 240.246 19.456C240.247 21.998 242.307 24.059 244.849 24.059Z" fill="#FF3864"/>
<path d="M206.334 38.333H212.667V44.666H206.334V38.333Z" fill="white"/>
<path d="M212.667 44.667H219V51H212.667V44.667Z" fill="white"/>
<path d="M200 44.667H206.333V51H200V44.667Z" fill="white"/>
<path d="M212.667 32H219V38.333L212.667 38.333L212.667 32Z" fill="white"/>
<path d="M200 32H206.333L206.334 38.333L200 38.333V32Z" fill="white"/>
<path d="M106.334 38.333H112.667V44.666H106.334V38.333Z" fill="white"/>
<path d="M112.667 44.667H119V51H112.667V44.667Z" fill="white"/>
<path d="M100 44.667H106.333V51H100V44.667Z" fill="white"/>
<path d="M112.667 32H119V38.333L112.667 38.333L112.667 32Z" fill="white"/>
<path d="M100 32H106.333L106.334 38.333L100 38.333V32Z" fill="white"/>
<path d="M6.33386 38.333H12.6669V44.666H6.33386V38.333Z" fill="white"/>
<path d="M12.667 44.667H19V51H12.667V44.667Z" fill="white"/>
<path d="M0 44.667H6.33301V51H0V44.667Z" fill="white"/>
<path d="M12.667 32H19V38.333L12.6669 38.333L12.667 32Z" fill="white"/>
<path d="M0 32H6.33301L6.33386 38.333L0 38.333V32Z" fill="white"/>
</svg>
