<svg width="130" height="139" viewBox="0 0 130 139" fill="none" xmlns="http://www.w3.org/2000/svg">
<path d="M53.7615 138.516C24.2805 138.516 0.29541 114.532 0.29541 85.0501C0.29541 55.5691 24.2795 31.5841 53.7615 31.5841C83.2435 31.5841 107.227 55.5681 107.227 85.0501C107.227 114.531 83.2425 138.516 53.7615 138.516ZM53.7615 43.2461C30.7105 43.2461 11.9575 61.9991 11.9575 85.0501C11.9575 108.101 30.7105 126.854 53.7615 126.854C76.8125 126.854 95.5654 108.101 95.5654 85.0501C95.5654 62.0001 76.8125 43.2461 53.7615 43.2461Z" fill="#2DE2E6"/>
<path d="M59.5923 37.416H47.9303V132.685H59.5923V37.416Z" fill="#2DE2E6"/>
<path d="M49.7975 80.8068L18.5492 109.788L26.4793 118.338L57.7276 89.3574L49.7975 80.8068Z" fill="#FF3864"/>
<path d="M57.7372 80.8178L49.807 89.3684L81.0552 118.349L88.9854 109.799L57.7372 80.8178Z" fill="#2DE2E6"/>
<path d="M57.8815 134.396C28.4005 134.396 4.41541 110.412 4.41541 80.9301C4.41541 51.4491 28.3995 27.4641 57.8815 27.4641C87.3625 27.4641 111.347 51.4481 111.347 80.9301C111.347 110.411 87.3625 134.396 57.8815 134.396ZM57.8815 39.1261C34.8305 39.1261 16.0775 57.8791 16.0775 80.9301C16.0775 103.981 34.8305 122.734 57.8815 122.734C80.9315 122.734 99.6854 103.981 99.6854 80.9301C99.6854 57.8801 80.9325 39.1261 57.8815 39.1261Z" fill="#FF3864"/>
<path d="M63.7124 33.2952H52.0504V128.564H63.7124V33.2952Z" fill="#FF3864"/>
<path d="M53.9147 76.6799L22.6665 105.661L30.5967 114.211L61.8448 85.2305L53.9147 76.6799Z" fill="#FF3864"/>
<path d="M61.8594 76.7016L53.9292 85.2522L85.1775 114.233L93.1076 105.683L61.8594 76.7016Z" fill="#FF3864"/>
<path d="M108.264 131.814C108.136 131.814 108.009 131.765 107.911 131.668C107.716 131.473 107.716 131.156 107.911 130.961C121.296 117.575 128.667 99.808 128.667 80.931C128.667 62.054 121.296 44.286 107.911 30.901C94.5255 17.516 76.7585 10.145 57.8815 10.145C57.6055 10.145 57.3815 9.92102 57.3815 9.64502C57.3815 9.36902 57.6055 9.14502 57.8815 9.14502C77.0265 9.14502 95.0444 16.621 108.617 30.194C122.191 43.768 129.667 61.787 129.667 80.931C129.667 100.076 122.191 118.094 108.617 131.668C108.52 131.765 108.392 131.814 108.264 131.814Z" fill="white"/>
<path d="M72.3555 21.3841C72.2565 21.3841 72.1585 21.3561 72.0715 21.2951L55.7005 9.97912C55.5555 9.87912 55.4735 9.71012 55.4855 9.53512C55.4975 9.36012 55.5995 9.2031 55.7565 9.1231L73.4715 0.0540972C73.7145 -0.0699028 74.0185 0.0261147 74.1445 0.272115C74.2705 0.517115 74.1726 0.819119 73.9266 0.945119L56.9555 9.63411L72.6395 20.4751C72.8675 20.6321 72.9235 20.9441 72.7665 21.1701C72.6705 21.3091 72.5135 21.3841 72.3555 21.3841Z" fill="white"/>
</svg>
