<svg width="234" height="51" viewBox="0 0 234 51" fill="none" xmlns="http://www.w3.org/2000/svg">
<path d="M63.5557 38.3862H57.2687V44.6732H63.5557V38.3862Z" fill="#2DE2E6"/>
<path d="M69.8427 38.3862H63.5557V44.6732H69.8427V38.3862Z" fill="#2DE2E6"/>
<path d="M76.1297 38.3862H69.8427V44.6732H76.1297V38.3862Z" fill="#2DE2E6"/>
<path d="M63.5557 44.6732H57.2687V50.9602H63.5557V44.6732Z" fill="#2DE2E6"/>
<path d="M69.8427 44.6732H63.5557V50.9602H69.8427V44.6732Z" fill="#2DE2E6"/>
<path d="M76.1297 44.6732H69.8427V50.9602H76.1297V44.6732Z" fill="#2DE2E6"/>
<path d="M82.4166 38.3862H76.1296V44.6732H82.4166V38.3862Z" fill="#2DE2E6"/>
<path d="M88.7038 38.3862H82.4167V44.6732H88.7038V38.3862Z" fill="#2DE2E6"/>
<path d="M94.9906 32.0991H88.7036V38.3861H94.9906V32.0991Z" fill="#2DE2E6"/>
<path d="M101.278 25.8121H94.9907V32.0991H101.278V25.8121Z" fill="#2DE2E6"/>
<path d="M94.9906 25.8121H88.7036V32.0991H94.9906V25.8121Z" fill="#2DE2E6"/>
<path d="M88.7038 25.8121H82.4167V32.0991H88.7038V25.8121Z" fill="#2DE2E6"/>
<path d="M82.4166 25.8121H76.1296V32.0991H82.4166V25.8121Z" fill="#2DE2E6"/>
<path d="M76.1297 25.8121H69.8427V32.0991H76.1297V25.8121Z" fill="#2DE2E6"/>
<path d="M69.8427 25.8121H63.5557V32.0991H69.8427V25.8121Z" fill="#2DE2E6"/>
<path d="M63.5557 25.8121H57.2687V32.0991H63.5557V25.8121Z" fill="#2DE2E6"/>
<path d="M57.2687 25.8121H50.9817V32.0991H57.2687V25.8121Z" fill="#2DE2E6"/>
<path d="M44.6947 25.8121H38.4077V32.0991H44.6947V25.8121Z" fill="#2DE2E6"/>
<path d="M32.1207 25.8121H25.8337V32.0991H32.1207V25.8121Z" fill="#2DE2E6"/>
<path d="M25.8336 25.8121H19.5466V32.0991H25.8336V25.8121Z" fill="#2DE2E6"/>
<path d="M101.278 19.5251H94.9907V25.8121H101.278V19.5251Z" fill="#2DE2E6"/>
<path d="M107.565 13.2382H101.278V19.5252H107.565V13.2382Z" fill="#2DE2E6"/>
<path d="M107.566 6.95117H101.279V13.2382H107.566V6.95117Z" fill="#2DE2E6"/>
<path d="M113.853 6.95117H107.566V13.2382H113.853V6.95117Z" fill="#2DE2E6"/>
<path d="M120.14 6.95117H113.853V13.2382H120.14V6.95117Z" fill="#2DE2E6"/>
<path d="M101.278 13.2382H94.9907V19.5252H101.278V13.2382Z" fill="#2DE2E6"/>
<path d="M101.278 6.95117H94.9907V13.2382H101.278V6.95117Z" fill="#2DE2E6"/>
<path d="M94.9906 13.2382H88.7036V19.5252H94.9906V13.2382Z" fill="#2DE2E6"/>
<path d="M94.9906 6.95117H88.7036V13.2382H94.9906V6.95117Z" fill="#2DE2E6"/>
<path d="M88.7038 13.2382H82.4167V19.5252H88.7038V13.2382Z" fill="#2DE2E6"/>
<path d="M88.7038 6.95117H82.4167V13.2382H88.7038V6.95117Z" fill="#2DE2E6"/>
<path d="M82.4166 13.2382H76.1296V19.5252H82.4166V13.2382Z" fill="#2DE2E6"/>
<path d="M82.4166 6.95117H76.1296V13.2382H82.4166V6.95117Z" fill="#2DE2E6"/>
<path d="M76.1297 13.2382H69.8427V19.5252H76.1297V13.2382Z" fill="#2DE2E6"/>
<path d="M76.1297 6.95117H69.8427V13.2382H76.1297V6.95117Z" fill="#2DE2E6"/>
<path d="M69.8427 13.2382H63.5557V19.5252H69.8427V13.2382Z" fill="#2DE2E6"/>
<path d="M69.8427 6.95117H63.5557V13.2382H69.8427V6.95117Z" fill="#2DE2E6"/>
<path d="M63.5557 13.2382H57.2687V19.5252H63.5557V13.2382Z" fill="#2DE2E6"/>
<path d="M63.5557 6.95117H57.2687V13.2382H63.5557V6.95117Z" fill="#2DE2E6"/>
<path d="M57.2687 13.2382H50.9817V19.5252H57.2687V13.2382Z" fill="#2DE2E6"/>
<path d="M57.2687 6.95117H50.9817V13.2382H57.2687V6.95117Z" fill="#2DE2E6"/>
<path d="M50.9816 6.95117H44.6946V13.2382H50.9816V6.95117Z" fill="#2DE2E6"/>
<path d="M44.6947 13.2382H38.4077V19.5252H44.6947V13.2382Z" fill="#2DE2E6"/>
<path d="M44.6947 6.95117H38.4077V13.2382H44.6947V6.95117Z" fill="#2DE2E6"/>
<path d="M38.4076 6.95117H32.1206V13.2382H38.4076V6.95117Z" fill="#2DE2E6"/>
<path d="M32.1207 13.2382H25.8337V19.5252H32.1207V13.2382Z" fill="#2DE2E6"/>
<path d="M32.1207 6.95117H25.8337V13.2382H32.1207V6.95117Z" fill="#2DE2E6"/>
<path d="M25.8336 13.2382H19.5466V19.5252H25.8336V13.2382Z" fill="#2DE2E6"/>
<path d="M25.8336 6.95117H19.5466V13.2382H25.8336V6.95117Z" fill="#2DE2E6"/>
<path d="M19.5466 13.2382H13.2596V19.5252H19.5466V13.2382Z" fill="#2DE2E6"/>
<path d="M19.5466 6.95117H13.2596V13.2382H19.5466V6.95117Z" fill="#2DE2E6"/>
<path d="M57.2687 38.3862H50.9817V44.6732H57.2687V38.3862Z" fill="#2DE2E6"/>
<path d="M50.9816 38.3862H44.6946V44.6732H50.9816V38.3862Z" fill="#2DE2E6"/>
<path d="M44.6947 38.3862H38.4077V44.6732H44.6947V38.3862Z" fill="#2DE2E6"/>
<path d="M57.2687 44.6732H50.9817V50.9602H57.2687V44.6732Z" fill="#2DE2E6"/>
<path d="M50.9816 44.6732H44.6946V50.9602H50.9816V44.6732Z" fill="#2DE2E6"/>
<path d="M44.6947 44.6732H38.4077V50.9602H44.6947V44.6732Z" fill="#2DE2E6"/>
<path d="M38.4076 38.3862H32.1206V44.6732H38.4076V38.3862Z" fill="#2DE2E6"/>
<path d="M32.1207 38.3862H25.8337V44.6732H32.1207V38.3862Z" fill="#2DE2E6"/>
<path d="M25.8336 32.0991H19.5466V38.3861H25.8336V32.0991Z" fill="#2DE2E6"/>
<path d="M32.1207 32.0991H25.8337V38.3861H32.1207V32.0991Z" fill="#2DE2E6"/>
<path d="M38.4076 32.0991H32.1206V38.3861H38.4076V32.0991Z" fill="#2DE2E6"/>
<path d="M44.6947 32.0991H38.4077V38.3861H44.6947V32.0991Z" fill="#2DE2E6"/>
<path d="M50.9816 32.0991H44.6946V38.3861H50.9816V32.0991Z" fill="#2DE2E6"/>
<path d="M57.2687 32.0991H50.9817V38.3861H57.2687V32.0991Z" fill="#2DE2E6"/>
<path d="M63.5557 32.0991H57.2687V38.3861H63.5557V32.0991Z" fill="#2DE2E6"/>
<path d="M69.8427 32.0991H63.5557V38.3861H69.8427V32.0991Z" fill="#2DE2E6"/>
<path d="M76.1297 32.0991H69.8427V38.3861H76.1297V32.0991Z" fill="#2DE2E6"/>
<path d="M82.4166 32.0991H76.1296V38.3861H82.4166V32.0991Z" fill="#2DE2E6"/>
<path d="M88.7038 32.0991H82.4167V38.3861H88.7038V32.0991Z" fill="#2DE2E6"/>
<path d="M19.5466 25.8121H13.2596V32.0991H19.5466V25.8121Z" fill="#2DE2E6"/>
<path d="M19.5466 19.5251H13.2596V25.8121H19.5466V19.5251Z" fill="#2DE2E6"/>
<path d="M25.8336 19.5251H19.5466V25.8121H25.8336V19.5251Z" fill="#2DE2E6"/>
<path d="M32.1207 19.5251H25.8337V25.8121H32.1207V19.5251Z" fill="#2DE2E6"/>
<path d="M38.4076 19.5251H32.1206V25.8121H38.4076V19.5251Z" fill="#2DE2E6"/>
<path d="M50.9816 25.8121H44.6946V32.0991H50.9816V25.8121Z" fill="#0D0221"/>
<path d="M38.4076 25.8121H32.1206V32.0991H38.4076V25.8121Z" fill="#0D0221"/>
<path d="M50.9816 13.2382H44.6946V19.5252H50.9816V13.2382Z" fill="#0D0221"/>
<path d="M38.4076 13.2382H32.1206V19.5252H38.4076V13.2382Z" fill="#0D0221"/>
<path d="M44.6947 19.5251H38.4077V25.8121H44.6947V19.5251Z" fill="#0D0221"/>
<path d="M50.9816 19.5251H44.6946V25.8121H50.9816V19.5251Z" fill="#2DE2E6"/>
<path d="M57.2687 19.5251H50.9817V25.8121H57.2687V19.5251Z" fill="#2DE2E6"/>
<path d="M63.5557 19.5251H57.2687V25.8121H63.5557V19.5251Z" fill="#2DE2E6"/>
<path d="M69.8427 19.5251H63.5557V25.8121H69.8427V19.5251Z" fill="#2DE2E6"/>
<path d="M76.1297 19.5251H69.8427V25.8121H76.1297V19.5251Z" fill="#2DE2E6"/>
<path d="M82.4166 19.5251H76.1296V25.8121H82.4166V19.5251Z" fill="#2DE2E6"/>
<path d="M88.7038 19.5251H82.4167V25.8121H88.7038V19.5251Z" fill="#2DE2E6"/>
<path d="M94.9906 19.5251H88.7036V25.8121H94.9906V19.5251Z" fill="#2DE2E6"/>
<path d="M13.2598 13.2382H6.97278V19.5252H13.2598V13.2382Z" fill="#2DE2E6"/>
<path d="M13.2598 6.95117H6.97278V13.2382H13.2598V6.95117Z" fill="#2DE2E6"/>
<path d="M6.97267 13.2382H0.685669V19.5252H6.97267V13.2382Z" fill="#2DE2E6"/>
<path d="M13.2598 19.5251H6.97278V25.8121H13.2598V19.5251Z" fill="#2DE2E6"/>
<path d="M6.97267 19.5251H0.685669V25.8121H6.97267V19.5251Z" fill="#2DE2E6"/>
<path d="M6.97267 6.95117H0.685669V13.2382H6.97267V6.95117Z" fill="#2DE2E6"/>
<path d="M107.566 0.664185H101.279V6.95119H107.566V0.664185Z" fill="#2DE2E6"/>
<path d="M113.853 0.664185H107.566V6.95119H113.853V0.664185Z" fill="#2DE2E6"/>
<path d="M120.14 0.664185H113.853V6.95119H120.14V0.664185Z" fill="#2DE2E6"/>
<path d="M101.278 0.664185H94.9907V6.95119H101.278V0.664185Z" fill="#2DE2E6"/>
<path d="M94.9906 0.664185H88.7036V6.95119H94.9906V0.664185Z" fill="#2DE2E6"/>
<path d="M88.7038 0.664185H82.4167V6.95119H88.7038V0.664185Z" fill="#2DE2E6"/>
<path d="M82.4166 0.664185H76.1296V6.95119H82.4166V0.664185Z" fill="#2DE2E6"/>
<path d="M76.1297 0.664185H69.8427V6.95119H76.1297V0.664185Z" fill="#2DE2E6"/>
<path d="M69.8427 0.664185H63.5557V6.95119H69.8427V0.664185Z" fill="#2DE2E6"/>
<path d="M63.5557 0.664185H57.2687V6.95119H63.5557V0.664185Z" fill="#2DE2E6"/>
<path d="M57.2687 0.664185H50.9817V6.95119H57.2687V0.664185Z" fill="#2DE2E6"/>
<path d="M50.9816 0.664185H44.6946V6.95119H50.9816V0.664185Z" fill="#2DE2E6"/>
<path d="M44.6947 0.664185H38.4077V6.95119H44.6947V0.664185Z" fill="#2DE2E6"/>
<path d="M38.4076 0.664185H32.1206V6.95119H38.4076V0.664185Z" fill="#2DE2E6"/>
<path d="M32.1207 0.664185H25.8337V6.95119H32.1207V0.664185Z" fill="#2DE2E6"/>
<path d="M25.8336 0.664185H19.5466V6.95119H25.8336V0.664185Z" fill="#2DE2E6"/>
<path d="M19.5466 0.664185H13.2596V6.95119H19.5466V0.664185Z" fill="#2DE2E6"/>
<path d="M176.724 38.3862H170.437V44.6732H176.724V38.3862Z" fill="#2DE2E6"/>
<path d="M170.437 38.3862H164.15V44.6732H170.437V38.3862Z" fill="#2DE2E6"/>
<path d="M164.15 38.3862H157.863V44.6732H164.15V38.3862Z" fill="#2DE2E6"/>
<path d="M176.724 44.6732H170.437V50.9602H176.724V44.6732Z" fill="#2DE2E6"/>
<path d="M170.437 44.6732H164.15V50.9602H170.437V44.6732Z" fill="#2DE2E6"/>
<path d="M164.15 44.6732H157.863V50.9602H164.15V44.6732Z" fill="#2DE2E6"/>
<path d="M157.863 38.3862H151.576V44.6732H157.863V38.3862Z" fill="#2DE2E6"/>
<path d="M151.576 38.3862H145.289V44.6732H151.576V38.3862Z" fill="#2DE2E6"/>
<path d="M145.289 32.0991H139.002V38.3861H145.289V32.0991Z" fill="#2DE2E6"/>
<path d="M139.002 25.8121H132.715V32.0991H139.002V25.8121Z" fill="#2DE2E6"/>
<path d="M145.289 25.8121H139.002V32.0991H145.289V25.8121Z" fill="#2DE2E6"/>
<path d="M151.576 25.8121H145.289V32.0991H151.576V25.8121Z" fill="#2DE2E6"/>
<path d="M157.863 25.8121H151.576V32.0991H157.863V25.8121Z" fill="#2DE2E6"/>
<path d="M164.15 25.8121H157.863V32.0991H164.15V25.8121Z" fill="#2DE2E6"/>
<path d="M170.437 25.8121H164.15V32.0991H170.437V25.8121Z" fill="#2DE2E6"/>
<path d="M176.724 25.8121H170.437V32.0991H176.724V25.8121Z" fill="#2DE2E6"/>
<path d="M183.011 25.8121H176.724V32.0991H183.011V25.8121Z" fill="#2DE2E6"/>
<path d="M189.298 25.8121H183.011V32.0991H189.298V25.8121Z" fill="#2DE2E6"/>
<path d="M195.585 25.8121H189.298V32.0991H195.585V25.8121Z" fill="#2DE2E6"/>
<path d="M201.872 25.8121H195.585V32.0991H201.872V25.8121Z" fill="#2DE2E6"/>
<path d="M208.159 25.8121H201.872V32.0991H208.159V25.8121Z" fill="#2DE2E6"/>
<path d="M214.446 25.8121H208.159V32.0991H214.446V25.8121Z" fill="#2DE2E6"/>
<path d="M139.002 19.5251H132.715V25.8121H139.002V19.5251Z" fill="#2DE2E6"/>
<path d="M132.715 13.2382H126.428V19.5252H132.715V13.2382Z" fill="#2DE2E6"/>
<path d="M132.714 6.95117H126.427V13.2382H132.714V6.95117Z" fill="#2DE2E6"/>
<path d="M126.427 6.95117H120.14V13.2382H126.427V6.95117Z" fill="#2DE2E6"/>
<path d="M139.002 13.2382H132.715V19.5252H139.002V13.2382Z" fill="#2DE2E6"/>
<path d="M139.002 6.95117H132.715V13.2382H139.002V6.95117Z" fill="#2DE2E6"/>
<path d="M145.289 13.2382H139.002V19.5252H145.289V13.2382Z" fill="#2DE2E6"/>
<path d="M145.289 6.95117H139.002V13.2382H145.289V6.95117Z" fill="#2DE2E6"/>
<path d="M151.576 13.2382H145.289V19.5252H151.576V13.2382Z" fill="#2DE2E6"/>
<path d="M151.576 6.95117H145.289V13.2382H151.576V6.95117Z" fill="#2DE2E6"/>
<path d="M157.863 13.2382H151.576V19.5252H157.863V13.2382Z" fill="#2DE2E6"/>
<path d="M157.863 6.95117H151.576V13.2382H157.863V6.95117Z" fill="#2DE2E6"/>
<path d="M164.15 13.2382H157.863V19.5252H164.15V13.2382Z" fill="#2DE2E6"/>
<path d="M164.15 6.95117H157.863V13.2382H164.15V6.95117Z" fill="#2DE2E6"/>
<path d="M170.437 13.2382H164.15V19.5252H170.437V13.2382Z" fill="#2DE2E6"/>
<path d="M170.437 6.95117H164.15V13.2382H170.437V6.95117Z" fill="#2DE2E6"/>
<path d="M176.724 13.2382H170.437V19.5252H176.724V13.2382Z" fill="#2DE2E6"/>
<path d="M176.724 6.95117H170.437V13.2382H176.724V6.95117Z" fill="#2DE2E6"/>
<path d="M183.011 13.2382H176.724V19.5252H183.011V13.2382Z" fill="#2DE2E6"/>
<path d="M183.011 6.95117H176.724V13.2382H183.011V6.95117Z" fill="#2DE2E6"/>
<path d="M189.298 13.2382H183.011V19.5252H189.298V13.2382Z" fill="#2DE2E6"/>
<path d="M189.298 6.95117H183.011V13.2382H189.298V6.95117Z" fill="#2DE2E6"/>
<path d="M195.585 13.2382H189.298V19.5252H195.585V13.2382Z" fill="#2DE2E6"/>
<path d="M195.585 6.95117H189.298V13.2382H195.585V6.95117Z" fill="#2DE2E6"/>
<path d="M201.872 13.2382H195.585V19.5252H201.872V13.2382Z" fill="#2DE2E6"/>
<path d="M201.872 6.95117H195.585V13.2382H201.872V6.95117Z" fill="#2DE2E6"/>
<path d="M208.159 13.2382H201.872V19.5252H208.159V13.2382Z" fill="#2DE2E6"/>
<path d="M208.159 6.95117H201.872V13.2382H208.159V6.95117Z" fill="#2DE2E6"/>
<path d="M214.446 13.2382H208.159V19.5252H214.446V13.2382Z" fill="#2DE2E6"/>
<path d="M214.446 6.95117H208.159V13.2382H214.446V6.95117Z" fill="#2DE2E6"/>
<path d="M220.734 13.2382H214.447V19.5252H220.734V13.2382Z" fill="#2DE2E6"/>
<path d="M220.734 6.95117H214.447V13.2382H220.734V6.95117Z" fill="#2DE2E6"/>
<path d="M183.011 38.3862H176.724V44.6732H183.011V38.3862Z" fill="#2DE2E6"/>
<path d="M189.298 38.3862H183.011V44.6732H189.298V38.3862Z" fill="#2DE2E6"/>
<path d="M195.585 38.3862H189.298V44.6732H195.585V38.3862Z" fill="#2DE2E6"/>
<path d="M183.011 44.6732H176.724V50.9602H183.011V44.6732Z" fill="#2DE2E6"/>
<path d="M189.298 44.6732H183.011V50.9602H189.298V44.6732Z" fill="#2DE2E6"/>
<path d="M195.585 44.6732H189.298V50.9602H195.585V44.6732Z" fill="#2DE2E6"/>
<path d="M201.872 38.3862H195.585V44.6732H201.872V38.3862Z" fill="#2DE2E6"/>
<path d="M208.159 38.3862H201.872V44.6732H208.159V38.3862Z" fill="#2DE2E6"/>
<path d="M214.446 32.0991H208.159V38.3861H214.446V32.0991Z" fill="#2DE2E6"/>
<path d="M208.159 32.0991H201.872V38.3861H208.159V32.0991Z" fill="#2DE2E6"/>
<path d="M201.872 32.0991H195.585V38.3861H201.872V32.0991Z" fill="#2DE2E6"/>
<path d="M195.585 32.0991H189.298V38.3861H195.585V32.0991Z" fill="#2DE2E6"/>
<path d="M189.298 32.0991H183.011V38.3861H189.298V32.0991Z" fill="#2DE2E6"/>
<path d="M183.011 32.0991H176.724V38.3861H183.011V32.0991Z" fill="#2DE2E6"/>
<path d="M176.724 32.0991H170.437V38.3861H176.724V32.0991Z" fill="#2DE2E6"/>
<path d="M170.437 32.0991H164.15V38.3861H170.437V32.0991Z" fill="#2DE2E6"/>
<path d="M164.15 32.0991H157.863V38.3861H164.15V32.0991Z" fill="#2DE2E6"/>
<path d="M157.863 32.0991H151.576V38.3861H157.863V32.0991Z" fill="#2DE2E6"/>
<path d="M151.576 32.0991H145.289V38.3861H151.576V32.0991Z" fill="#2DE2E6"/>
<path d="M220.734 25.8121H214.447V32.0991H220.734V25.8121Z" fill="#2DE2E6"/>
<path d="M220.734 19.5251H214.447V25.8121H220.734V19.5251Z" fill="#2DE2E6"/>
<path d="M214.446 19.5251H208.159V25.8121H214.446V19.5251Z" fill="#2DE2E6"/>
<path d="M208.159 19.5251H201.872V25.8121H208.159V19.5251Z" fill="#2DE2E6"/>
<path d="M201.872 19.5251H195.585V25.8121H201.872V19.5251Z" fill="#2DE2E6"/>
<path d="M195.585 19.5251H189.298V25.8121H195.585V19.5251Z" fill="#2DE2E6"/>
<path d="M189.298 19.5251H183.011V25.8121H189.298V19.5251Z" fill="#2DE2E6"/>
<path d="M183.011 19.5251H176.724V25.8121H183.011V19.5251Z" fill="#2DE2E6"/>
<path d="M176.724 19.5251H170.437V25.8121H176.724V19.5251Z" fill="#2DE2E6"/>
<path d="M170.437 19.5251H164.15V25.8121H170.437V19.5251Z" fill="#2DE2E6"/>
<path d="M164.15 19.5251H157.863V25.8121H164.15V19.5251Z" fill="#2DE2E6"/>
<path d="M157.863 19.5251H151.576V25.8121H157.863V19.5251Z" fill="#2DE2E6"/>
<path d="M151.576 19.5251H145.289V25.8121H151.576V19.5251Z" fill="#2DE2E6"/>
<path d="M145.289 19.5251H139.002V25.8121H145.289V19.5251Z" fill="#2DE2E6"/>
<path d="M227.02 13.2382H220.733V19.5252H227.02V13.2382Z" fill="#2DE2E6"/>
<path d="M227.02 6.95117H220.733V13.2382H227.02V6.95117Z" fill="#2DE2E6"/>
<path d="M132.714 0.664185H126.427V6.95119H132.714V0.664185Z" fill="#2DE2E6"/>
<path d="M126.427 0.664185H120.14V6.95119H126.427V0.664185Z" fill="#2DE2E6"/>
<path d="M139.002 0.664185H132.715V6.95119H139.002V0.664185Z" fill="#2DE2E6"/>
<path d="M145.289 0.664185H139.002V6.95119H145.289V0.664185Z" fill="#2DE2E6"/>
<path d="M151.576 0.664185H145.289V6.95119H151.576V0.664185Z" fill="#2DE2E6"/>
<path d="M157.863 0.664185H151.576V6.95119H157.863V0.664185Z" fill="#2DE2E6"/>
<path d="M164.15 0.664185H157.863V6.95119H164.15V0.664185Z" fill="#2DE2E6"/>
<path d="M170.437 0.664185H164.15V6.95119H170.437V0.664185Z" fill="#2DE2E6"/>
<path d="M176.724 0.664185H170.437V6.95119H176.724V0.664185Z" fill="#2DE2E6"/>
<path d="M183.011 0.664185H176.724V6.95119H183.011V0.664185Z" fill="#2DE2E6"/>
<path d="M189.298 0.664185H183.011V6.95119H189.298V0.664185Z" fill="#2DE2E6"/>
<path d="M195.585 0.664185H189.298V6.95119H195.585V0.664185Z" fill="#2DE2E6"/>
<path d="M201.872 0.664185H195.585V6.95119H201.872V0.664185Z" fill="#2DE2E6"/>
<path d="M208.159 0.664185H201.872V6.95119H208.159V0.664185Z" fill="#2DE2E6"/>
<path d="M214.446 0.664185H208.159V6.95119H214.446V0.664185Z" fill="#2DE2E6"/>
<path d="M220.734 0.664185H214.447V6.95119H220.734V0.664185Z" fill="#2DE2E6"/>
<path d="M233.308 13.2382H227.021V19.5252H233.308V13.2382Z" fill="#2DE2E6"/>
<path d="M227.02 19.5251H220.733V25.8121H227.02V19.5251Z" fill="#2DE2E6"/>
<path d="M233.308 19.5251H227.021V25.8121H233.308V19.5251Z" fill="#2DE2E6"/>
<path d="M233.308 6.95117H227.021V13.2382H233.308V6.95117Z" fill="#2DE2E6"/>
<path d="M170.437 25.8121H164.15V32.0991H170.437V25.8121Z" fill="#0D0221"/>
<path d="M157.863 25.8121H151.576V32.0991H157.863V25.8121Z" fill="#0D0221"/>
<path d="M170.437 13.2382H164.15V19.5252H170.437V13.2382Z" fill="#0D0221"/>
<path d="M157.863 13.2382H151.576V19.5252H157.863V13.2382Z" fill="#0D0221"/>
<path d="M164.15 19.5251H157.863V25.8121H164.15V19.5251Z" fill="#0D0221"/>
</svg>
