<?xml version="1.0" standalone="no"?>
<!DOCTYPE svg PUBLIC "-//W3C//DTD SVG 20010904//EN"
 "http://www.w3.org/TR/2001/REC-SVG-20010904/DTD/svg10.dtd">
<svg version="1.0" xmlns="http://www.w3.org/2000/svg"
 width="512.000000pt" height="512.000000pt" viewBox="0 0 512.000000 512.000000"
 preserveAspectRatio="xMidYMid meet">
<metadata>
Created by potrace 1.14, written by Peter Selinger 2001-2017
</metadata>
<g transform="translate(0.000000,512.000000) scale(0.100000,-0.100000)"
fill="#000000" stroke="none">
<path d="M948 4358 c-52 -14 -123 -79 -143 -132 -10 -27 -18 -78 -19 -132 l-1
-89 -40 -15 c-128 -50 -171 -95 -272 -290 -145 -282 -258 -587 -338 -915 -34
-139 -69 -312 -80 -390 -3 -23 -7 -50 -9 -60 -4 -22 -12 -94 -21 -190 -4 -33
-8 -78 -11 -100 -6 -50 10 -89 42 -104 23 -10 25 -15 23 -82 -2 -62 -4 -72
-23 -79 -51 -19 -57 -39 -52 -167 6 -133 14 -197 41 -323 22 -106 87 -256 143
-333 158 -214 439 -272 722 -150 273 118 520 337 732 649 90 132 100 143 151
169 l50 24 714 1 c676 0 717 -1 756 -18 53 -24 79 -51 142 -143 88 -132 156
-218 255 -322 68 -73 221 -206 261 -229 13 -7 26 -15 29 -19 22 -24 166 -97
253 -129 111 -39 249 -54 353 -38 127 21 255 105 339 223 35 49 86 143 90 165
0 3 10 34 22 70 47 141 58 240 58 510 -1 214 -11 410 -30 535 -18 122 -36 233
-39 251 -3 12 -7 37 -10 55 -8 46 -14 77 -20 97 -3 9 -7 29 -10 43 -8 46 -66
260 -103 377 -37 120 -59 152 -103 152 -23 0 -30 9 -58 77 -31 76 -31 77 -12
95 20 19 24 34 20 73 -2 27 -154 330 -187 375 -50 67 -121 120 -189 140 l-39
12 -1 90 c-2 113 -21 165 -80 216 -68 60 -90 63 -434 59 -168 -2 -312 -5 -320
-8 -35 -10 -89 -49 -112 -80 -37 -50 -48 -92 -48 -188 l0 -87 -46 -13 c-25 -8
-73 -34 -106 -60 -33 -25 -81 -59 -106 -76 l-45 -30 -459 -3 c-293 -2 -472 1
-496 8 -20 5 -70 36 -110 69 -41 32 -92 66 -115 76 -23 9 -49 20 -57 25 -11 5
-16 32 -20 106 -8 141 -42 199 -140 243 -42 19 -67 20 -350 20 -170 -1 -321
-5 -342 -11z"/>
</g>
</svg>
