<svg xmlns="http://www.w3.org/2000/svg" version="1.1" xmlns:xlink="http://www.w3.org/1999/xlink" width="1000" height="1000"><g clip-path="url(#SvgjsClipPath1021)"><rect width="1000" height="1000" fill="#0d0221"></rect><g transform="matrix(6.666666666666667,0,0,6.666666666666667,150,266.66666666666663)"><svg xmlns="http://www.w3.org/2000/svg" version="1.1" xmlns:xlink="http://www.w3.org/1999/xlink" width="105" height="70"><svg width="105" height="70" viewBox="0 0 105 70" fill="none" xmlns="http://www.w3.org/2000/svg">
<mask id="mask0_3_28" style="mask-type:luminance" maskUnits="userSpaceOnUse" x="0" y="0" width="105" height="70">
<path d="M105 0H0V70H105V0Z" fill="white"></path>
</mask>
<g mask="url(#mask0_3_28)">
<path d="M81.3335 32.5745C73.5775 32.5745 67.2914 38.8146 67.2914 46.5107C67.2914 54.2089 73.5793 60.4491 81.3335 60.4491C89.0871 60.4491 95.3767 54.2089 95.3767 46.5107C95.3767 38.8124 89.0895 32.5745 81.3335 32.5745ZM81.3323 36.9016C83.4815 36.9016 85.2267 38.6318 85.2267 40.7662V42.6461H87.1201C89.2704 42.6461 91.0144 44.3763 91.0144 46.5107C91.0144 48.6451 89.2704 50.3741 87.1201 50.3741H85.2267V52.2551C85.2267 54.3896 83.4826 56.1197 81.3323 56.1197C79.182 56.1197 77.4391 54.3896 77.4391 52.2551V50.3741H75.5446C73.3954 50.3741 71.6513 48.6435 71.6513 46.5107C71.6513 44.3779 73.3942 42.6461 75.5446 42.6461H77.4391V40.7662C77.4391 38.6318 79.1832 36.9016 81.3323 36.9016Z" fill="#2DE2E6"></path>
<path d="M23.6665 32.5745C15.9119 32.5745 9.62317 38.8146 9.62317 46.5107C9.62317 54.2089 15.9103 60.4491 23.6665 60.4491C31.4226 60.4491 37.7097 54.2089 37.7097 46.5107C37.7097 38.8124 31.421 32.5745 23.6665 32.5745ZM23.6653 37.2901C25.2867 37.2901 26.6009 38.5935 26.6009 40.2034C26.6009 41.8133 25.2873 43.1178 23.6653 43.1178C22.0432 43.1178 20.7285 41.8133 20.7285 40.2034C20.7285 38.5951 22.0438 37.2901 23.6653 37.2901ZM17.3101 43.5963C18.9338 43.5963 20.2457 44.8996 20.2457 46.5095C20.2457 48.1194 18.9338 49.4262 17.3101 49.4262C15.6897 49.4262 14.3756 48.1194 14.3756 46.5095C14.3756 44.8996 15.6864 43.5963 17.3101 43.5963ZM30.0194 43.5963C31.6403 43.5963 32.9562 44.8996 32.9562 46.5095C32.9562 48.1194 31.6403 49.4262 30.0194 49.4262C28.3985 49.4262 27.0837 48.1194 27.0837 46.5095C27.0837 44.8996 28.3985 43.5963 30.0194 43.5963ZM23.6653 49.9036C25.2867 49.9036 26.601 51.2041 26.601 52.8157C26.601 54.4272 25.2873 55.7312 23.6653 55.7312C22.0432 55.7312 20.7285 54.4272 20.7285 52.8157C20.7285 51.2079 22.0438 49.9036 23.6653 49.9036Z" fill="#2DE2E6"></path>
<path d="M23.6668 23.021H43.6081V17.494H49.194C49.0688 16.8891 48.9878 16.192 48.9878 15.3525C48.9878 12.9857 49.6175 11.7011 50.1235 10.6661C50.5551 9.78489 50.867 9.14906 50.867 7.67707C50.867 6.20509 50.5551 5.56547 50.1235 4.68477C49.6175 3.65149 48.9878 2.36519 48.9878 0H52.8965C52.8965 1.472 53.2083 2.10836 53.64 2.98906C54.1454 4.02397 54.7757 5.31027 54.7757 7.67707C54.7757 10.0439 54.1449 11.3286 53.64 12.3618C53.2083 13.2431 52.8965 13.8789 52.8965 15.3525C52.8965 16.3299 53.0355 16.9364 53.2543 17.494H61.3917V23.021H81.3331C94.3832 23.021 105 33.5579 105 46.5104C105 59.4632 94.3832 70 81.3331 70C70.301 70 60.9108 62.5835 58.3496 52.1183H46.6502C44.0889 62.5835 34.6981 70 23.6668 70C10.6167 70 0 59.4632 0 46.5104C0 33.5579 10.6173 23.021 23.6668 23.021ZM23.6668 65.7259C33.1981 65.7259 41.2311 58.9592 42.7678 49.6358L43.0627 47.8456H61.9359L62.2323 49.6358C63.7687 58.9598 71.8023 65.7259 81.3331 65.7259C92.0091 65.7259 100.694 57.1066 100.694 46.5099C100.694 35.9133 92.0091 27.2941 81.3331 27.2941H23.6668C12.991 27.2941 4.30589 35.9149 4.30589 46.5099C4.30589 57.1049 12.991 65.7259 23.6668 65.7259Z" fill="#2DE2E6"></path>
</g>
</svg></svg></g></g><defs><clipPath id="SvgjsClipPath1021"><rect width="1000" height="1000" x="0" y="0" rx="350" ry="350"></rect></clipPath></defs></svg>